<?xml version="1.0" standalone="no"?>
<!DOCTYPE svg PUBLIC "-//W3C//DTD SVG 20010904//EN"
 "http://www.w3.org/TR/2001/REC-SVG-20010904/DTD/svg10.dtd">
<svg version="1.0" xmlns="http://www.w3.org/2000/svg"
 width="350.000000pt" height="350.000000pt" viewBox="0 0 350.000000 350.000000"
 preserveAspectRatio="xMidYMid meet">
<metadata>
Created by potrace 1.11, written by Peter Selinger 2001-2013
</metadata>
<g transform="translate(0.000000,350.000000) scale(0.100000,-0.100000)"
fill="#000000" stroke="none">
<path d="M1628 3484 c-31 -7 -79 -24 -107 -38 -40 -19 -373 -257 -536 -383
-16 -13 -34 -27 -40 -31 -26 -20 -183 -135 -204 -150 -13 -9 -35 -26 -50 -38
-14 -11 -132 -98 -261 -193 -311 -229 -358 -280 -401 -448 -33 -130 -20 -222
61 -429 365 -938 559 -1432 576 -1470 18 -42 82 -134 108 -157 39 -33 131 -93
161 -105 108 -41 128 -42 803 -42 693 0 714 1 845 50 89 34 191 121 245 212
23 37 241 584 242 603 0 3 7 19 15 35 9 16 29 65 44 107 16 43 89 229 161 413
207 526 199 502 205 616 7 120 -29 240 -100 339 -51 71 -39 60 -262 227 -98
73 -182 136 -188 140 -13 10 -544 404 -645 478 -41 30 -82 61 -90 67 -72 59
-176 129 -225 153 -115 55 -243 71 -357 44z m251 -138 c38 -14 177 -99 191
-116 3 -4 178 -135 389 -291 864 -640 793 -585 841 -654 55 -81 81 -218 59
-317 -5 -21 -39 -113 -75 -205 -127 -323 -153 -389 -208 -533 -31 -80 -61
-154 -65 -165 -5 -11 -25 -60 -44 -110 -102 -266 -220 -566 -240 -605 -49
-100 -170 -189 -284 -207 -26 -4 -352 -8 -723 -8 l-675 0 -66 32 c-78 39 -150
105 -182 170 -14 27 -84 201 -157 388 -72 187 -140 359 -151 382 -10 24 -19
45 -19 49 0 5 -147 384 -172 444 -6 14 -15 35 -19 48 -5 12 -13 32 -18 45 -98
243 -118 309 -118 387 0 96 41 199 105 263 20 21 174 139 342 263 453 336 464
344 548 407 42 32 86 65 97 73 11 8 86 63 167 123 130 96 210 141 273 154 41
9 161 -1 204 -17z"/>
<path d="M973 1575 c0 -718 4 -1015 11 -1016 44 -5 243 -4 251 2 7 5 10 311 9
886 0 483 1 883 3 888 2 7 183 10 526 10 l522 0 2 -830 c1 -456 2 -859 3 -895
l0 -65 128 1 c70 1 130 2 135 3 4 0 7 458 7 1016 l0 1015 -798 0 -799 0 0
-1015z"/>
</g>
</svg>
